<?xml version="1.0" encoding="utf-8"?>
<!-- Generator: Adobe Illustrator 17.0.0, SVG Export Plug-In . SVG Version: 6.00 Build 0)  -->
<!DOCTYPE svg PUBLIC "-//W3C//DTD SVG 1.1//EN" "http://www.w3.org/Graphics/SVG/1.1/DTD/svg11.dtd">
<svg version="1.1" id="Layer_1" xmlns="http://www.w3.org/2000/svg" xmlns:xlink="http://www.w3.org/1999/xlink" x="0px" y="0px"
	 width="512px" height="512px" viewBox="0 0 512 512" enable-background="new 0 0 512 512" xml:space="preserve">
<g>
	<g>
		<path fill="#65A873" d="M256,4.362C117.024,4.362,4.362,117.024,4.362,256S117.024,507.638,256,507.638
			S507.638,394.976,507.638,256S394.976,4.362,256,4.362z M256,503.522C119.297,503.522,8.478,392.702,8.478,256
			S119.297,8.478,256,8.478S503.522,119.298,503.522,256S392.702,503.522,256,503.522z"/>
	</g>
	<g>
		<defs>
			<circle id="SVGID_1_" cx="256" cy="256" r="205.684"/>
		</defs>
		<use xlink:href="#SVGID_1_"  overflow="visible" fill="#65A873"/>
		<clipPath id="SVGID_2_">
			<use xlink:href="#SVGID_1_"  overflow="visible"/>
		</clipPath>
		<g clip-path="url(#SVGID_2_)">
			<path opacity="0.2" fill="#020202" d="M410.267,185.78l38.643,38.643l142.733,142.733L356.136,600.198L142.739,386.8
				l-0.594-1.038l-14.775-14.775l3.547-15.37l-3.547-54.828l1.33-102.119l6.059-25.271l1.478-3.99c0,0-1.773-11.232-1.478-11.971
				s-1.773-14.778-1.773-14.778l4.581-9.015l6.355-2.956l20.838,1.773l52.316-1.773l51.723-2.66l45.149,45.149l28.154-2.144
				l40.789,12.414l15.517,4.286L410.267,185.78z"/>
			<g>
				<path fill="#FFFFFF" d="M281.262,343.877c0-0.17,0-0.303,0-4.757V206.09c0-6.072-0.047-10.735-0.785-15.53
					c-0.728-4.899-2.1-9.657-4.71-15.682l-0.123-0.284l-0.218-0.378l-7.122-12.258l0.095-0.095l-0.028-0.01
					c1.296-1.296,2.289-2.904,2.856-4.682l0.028-0.028v-0.028v-0.028l0.01-0.038l0.01-0.038v-0.028h0.01l0.01-0.038v-0.038
					l0.01-0.028l0.01-0.028v-0.028l0.01-0.028c0.085-0.293,0.142-0.558,0.208-0.842l0.038-0.208l0.01-0.028v-0.01l0.047-0.303
					v-0.047l0.01-0.047v-0.01v-0.038l0.01-0.028v-0.047v-0.028v-0.047l0.01-0.019l0.01-0.038v-0.038v-0.038v-0.038v-0.028
					l0.01-0.038l0.01-0.01v-0.028v-0.038v-0.038v-0.038v-0.038v-0.028l0.01-0.047v-0.028v-0.01l0.01-0.019v-0.038v-0.038v-0.038
					v-0.01v-0.028v-0.038v-0.028v-0.047l0.01-0.01v-0.01v-0.047v-0.019v-0.047v-0.01v-0.01v-0.038v-0.038l0.01-0.038v-0.028v-0.01
					v-0.038v-0.038v-0.028v-0.038v-0.038v-0.047v-0.028v-0.038v-18.056v-0.142v-0.123v-0.028l-0.01-0.123v-0.028v-0.095v-0.047
					l-0.01-0.095v-0.047v-0.076l-0.01-0.076v-0.057l-0.01-0.085v-0.047v-0.095l-0.028-0.038v-0.113v-0.028l-0.028-0.123l-0.01-0.132
					v-0.01l-0.028-0.123l-0.019-0.123v-0.028l-0.01-0.123v-0.028l-0.028-0.095l-0.01-0.047l-0.01-0.076l-0.028-0.047v-0.085
					l-0.028-0.066l-0.01-0.076l-0.01-0.076l-0.028-0.047l-0.01-0.085l-0.01-0.038l-0.028-0.095v-0.028l-0.038-0.123v-0.01
					l-0.038-0.113v-0.01l-0.038-0.123l-0.01-0.01l-0.019-0.123v-0.01l-0.047-0.113l-0.038-0.123l-0.01-0.038l-0.028-0.085
					l-0.047-0.113v-0.01l-0.028-0.047l-0.028-0.076l-0.028-0.076l-0.028-0.038l-0.028-0.085l-0.028-0.038l-0.028-0.085l-0.01-0.038
					l-0.038-0.095l-0.028-0.01l-0.095-0.246l-0.047-0.123l-0.047-0.113l-0.028-0.019l-0.047-0.085v-0.047l-0.047-0.076l-0.028-0.047
					l-0.038-0.057l-0.028-0.066l-0.038-0.047l-0.057-0.123l-0.038-0.076l-0.028-0.038l-0.047-0.085l-0.01-0.028l-0.057-0.095v-0.01
					l-0.076-0.095v-0.01l-0.057-0.113l-0.076-0.113h-0.01l-0.057-0.095l-0.01-0.028l-0.047-0.085l-0.028-0.038l-0.047-0.076
					l-0.076-0.095l-0.038-0.047l-0.038-0.047l-0.076-0.113l-0.047-0.057l-0.038-0.047l-0.047-0.076l-0.028-0.019l-0.057-0.085
					l-0.028-0.01l-0.066-0.085l-0.01-0.01l-0.076-0.095h-0.01l-0.085-0.095v-0.01l-0.161-0.18l-0.01-0.01v-0.01
					c-0.151-0.17-0.303-0.359-0.464-0.511c-2.1-2.081-4.966-3.377-8.134-3.377h-55.018h-7.794h-55.037h-0.123h-0.028l-0.123,0.01
					h-0.028h-0.095h-0.047h-0.095h-0.047h-0.085l-0.066,0.028h-0.076h-0.057h-0.076l-0.085,0.01h-0.047l-0.085,0.01h-0.047
					l-0.085,0.01h-0.047l-0.095,0.01h-0.028l-0.123,0.028h-0.028l-0.123,0.028l-0.123,0.028h-0.028l-0.123,0.028h-0.01l-0.113,0.028
					h-0.028l-0.113,0.028h-0.038l-0.085,0.028h-0.057l-0.076,0.028l-0.057,0.028h-0.057l-0.076,0.028l-0.047,0.01l-0.095,0.019
					l-0.038,0.01l-0.095,0.028h-0.038l-0.095,0.038l-0.028,0.01l-0.113,0.028h-0.01l-0.123,0.047l-0.123,0.028l-0.01,0.01
					l-0.113,0.038h-0.028l-0.095,0.047h-0.028l-0.095,0.038l-0.047,0.01l-0.076,0.038l-0.047,0.01l-0.076,0.028l-0.066,0.028
					l-0.057,0.028l-0.076,0.038l-0.047,0.01l-0.076,0.047l-0.047,0.01l-0.085,0.038l-0.038,0.01l-0.095,0.038l-0.01,0.028
					l-0.113,0.038v0.01l-0.123,0.047l-0.123,0.057v0.01l-0.104,0.047h-0.01l-0.095,0.047l-0.028,0.028l-0.095,0.047l-0.028,0.01
					l-0.076,0.038l-0.047,0.028l-0.076,0.047l-0.047,0.028l-0.057,0.038l-0.057,0.038l-0.047,0.028l-0.076,0.047l-0.038,0.028
					l-0.076,0.047l-0.038,0.028l-0.095,0.047l-0.01,0.01l-0.085,0.057h-0.028l-0.095,0.076l-0.113,0.076v0.01l-0.113,0.057v0.01
					l-0.095,0.057l-0.028,0.028l-0.076,0.057l-0.038,0.01l-0.076,0.057l-0.038,0.038l-0.057,0.038l-0.047,0.038l-0.057,0.047
					l-0.047,0.038l-0.038,0.038l-0.057,0.047l-0.047,0.038l-0.057,0.057l-0.038,0.028l-0.076,0.057l-0.01,0.01l-0.085,0.076
					l-0.028,0.028c-0.17,0.151-0.341,0.293-0.511,0.464c-2.071,2.071-3.367,4.947-3.367,8.125v18.056v0.038v0.028v0.047v0.038v0.038
					v0.028v0.038v0.038v0.01v0.028v0.038v0.038v0.038v0.01l0.01,0.01v0.047v0.019v0.047v0.01v0.01l0.01,0.047v0.028v0.038v0.028
					v0.01v0.038v0.038l0.01,0.038v0.019v0.01v0.028v0.047l0.01,0.028v0.028v0.01v0.038v0.038l0.01,0.038v0.028v0.01v0.038
					l0.01,0.028v0.038v0.038v0.038l0.01,0.038v0.019l0.01,0.047v0.028v0.047v0.028l0.01,0.038l0.01,0.01v0.028v0.028v0.047
					l0.01,0.028v0.01l0.01,0.028v0.038v0.038v0.038l0.01,0.01v0.028l0.01,0.057v0.038l0.01,0.01l0.038,0.227l0.047,0.18v0.028
					l0.047,0.218v0.019l0.01,0.01v0.01l0.01,0.038v0.028l0.01,0.01l0.01,0.019v0.028v0.01v0.028l0.01,0.028l0.01,0.028v0.038v0.028
					l0.028,0.028v0.028v0.028l0.01,0.028l0.01,0.028v0.028l0.01,0.028v0.028l0.01,0.028l0.01,0.028v0.028l0.01,0.028l0.01,0.028
					v0.028l0.01,0.038c0.047,0.18,0.123,0.378,0.199,0.558c0.113,0.35,0.246,0.69,0.426,1.012c0.577,1.173,1.324,2.242,2.232,3.159
					l0.028,0.01l0.01,0.01l0.085,0.085l-7.151,12.267l-0.218,0.378l-0.123,0.284c-2.61,6.025-3.973,10.783-4.71,15.682
					c-0.719,4.805-0.776,9.458-0.776,15.53v133.03c0,4.455,0,4.587,0,4.757c-0.161,17.554-0.246,27.779,15.644,31.061l0.426,2.204
					c0.634,3.291,2.119,6.384,4.389,8.654c2.346,2.346,5.401,3.802,9.137,3.802h46.421h7.794h46.412
					c3.727,0,6.791-1.466,9.137-3.802v-0.028c2.27-2.27,3.755-5.363,4.389-8.635l0.435-2.204
					C281.508,371.647,281.414,361.432,281.262,343.877z M143.607,136.856h53.855h7.794h26.927v12.523h-88.576V136.856z
					 M225.856,376.934h-20.591h-7.794h-46.421c-0.066,0-0.123-0.038-0.18-0.095c-0.435-0.426-0.747-1.182-0.917-2.071l-0.624-3.159
					h76.914L225.856,376.934z M250.088,358.944H135.7c-1.74-3.206-1.693-8.191-1.646-14.963c0.028-2.894,0.047-3.764,0.047-4.862
					V206.09c0-5.58,0.057-9.799,0.634-13.695c0.558-3.708,1.636-7.415,3.708-12.239l10.508-18.084l0.028-0.028h86.723
					c4.01,9.941,10.158,25.48,11.511,30.645c1.173,4.426,1.93,12.135,2.374,17.98h-77.803V330.73h78.305L250.088,358.944
					L250.088,358.944z"/>
				<path fill="#FFFFFF" d="M385.397,168.957c-18.415-7.935-43.697-12.854-71.476-12.854c-12.088,0-23.646,0.974-34.419,2.686
					c-0.558,1.125-1.239,2.185-2.109,3.065l0.028,0.01l-0.095,0.095l7.122,12.258l0.218,0.378l0.123,0.284
					c2.61,6.025,3.973,10.783,4.71,15.682c0.728,4.805,0.785,9.458,0.785,15.53v133.03c0,4.455,0,4.587,0,4.757
					c0.133,14.764,0.095,24.27-9.326,28.895h93.211c7.718,0,14.736-3.159,19.815-8.238s8.229-12.088,8.229-19.805v-112.42
					c4.389-3.254,7.983-6.819,10.65-10.631c3.556-5.088,5.467-10.565,5.467-16.315C418.302,190.55,405.732,177.725,385.397,168.957z
					 M335.486,183.948c4.351,0,7.879,3.519,7.879,7.869c0,4.351-3.519,7.879-7.879,7.879c-4.341,0-7.879-3.528-7.879-7.879
					C327.617,187.466,331.145,183.948,335.486,183.948z M293.378,199.185c0-3.31,2.677-5.997,5.977-5.997
					c3.32,0,5.997,2.686,5.997,5.997s-2.686,5.997-5.997,5.997C296.055,205.172,293.378,202.496,293.378,199.185z M305.872,248.661
					c-4.634,0-8.389-3.755-8.389-8.389c0-4.644,3.755-8.389,8.389-8.389s8.389,3.755,8.389,8.389
					C314.262,244.907,310.507,248.661,305.872,248.661z M323.853,296.605c0-2.27,1.844-4.105,4.114-4.105
					c2.27,0,4.114,1.835,4.114,4.105c0,2.27-1.844,4.114-4.114,4.114C325.697,300.719,323.853,298.875,323.853,296.605z
					 M332.923,337.02c-3.121,0-5.646-2.535-5.646-5.656s2.525-5.646,5.646-5.646c3.121,0,5.656,2.525,5.656,5.646
					C338.579,334.485,336.044,337.02,332.923,337.02z M349.532,241.483c-5.675,0-10.272-4.606-10.272-10.281
					s4.597-10.272,10.272-10.272s10.272,4.597,10.272,10.272C359.803,236.876,355.207,241.483,349.532,241.483z M375.22,324.005
					c-1.702,0-3.083-1.381-3.083-3.083c0-1.693,1.381-3.083,3.083-3.083c1.702,0,3.083,1.381,3.083,3.083
					C378.303,322.625,376.923,324.005,375.22,324.005z M377.273,273.669c-2.071,0-3.764-1.693-3.764-3.774
					c0-2.081,1.693-3.774,3.764-3.774c2.071,0,3.774,1.693,3.774,3.774C381.037,271.976,379.344,273.669,377.273,273.669z
					 M380.526,204.151c-3.301,0-5.997-2.686-5.997-5.997c0-3.31,2.686-5.997,5.997-5.997c3.31,0,5.997,2.686,5.997,5.997
					C386.523,201.465,383.837,204.151,380.526,204.151z"/>
			</g>
		</g>
	</g>
</g>
</svg>
