<?xml version="1.0" encoding="utf-8"?>
<!-- Generator: Adobe Illustrator 17.0.0, SVG Export Plug-In . SVG Version: 6.00 Build 0)  -->
<!DOCTYPE svg PUBLIC "-//W3C//DTD SVG 1.1//EN" "http://www.w3.org/Graphics/SVG/1.1/DTD/svg11.dtd">
<svg version="1.1" id="Layer_1" xmlns="http://www.w3.org/2000/svg" xmlns:xlink="http://www.w3.org/1999/xlink" x="0px" y="0px"
	 width="512px" height="512px" viewBox="0 0 512 512" enable-background="new 0 0 512 512" xml:space="preserve">
<g>
	<g>
		<path fill="#65A873" d="M256,4.362C117.024,4.362,4.362,117.024,4.362,256S117.024,507.638,256,507.638
			S507.638,394.976,507.638,256S394.976,4.362,256,4.362z M256,503.522C119.298,503.522,8.478,392.702,8.478,256
			S119.298,8.478,256,8.478S503.522,119.298,503.522,256S392.702,503.522,256,503.522z"/>
	</g>
	<g>
		<defs>
			<circle id="SVGID_1_" cx="256" cy="256" r="205.684"/>
		</defs>
		<use xlink:href="#SVGID_1_"  overflow="visible" fill="#65A873"/>
		<clipPath id="SVGID_2_">
			<use xlink:href="#SVGID_1_"  overflow="visible"/>
		</clipPath>
		<g clip-path="url(#SVGID_2_)">
			<path opacity="0.2" fill="#020202" d="M304.78,96.013l41.77,41.77l17.753-3.695l95.466,95.466L625.474,395.26L366.528,596.359
				L179.566,408.388l8.631,6.124l-32.64-32.64l8.88-6.105l-7.955-42.552l-0.925-14.246l18.316-33.486l9.25-41.442l-7.722-7.722
				l-29.095-29.095c0,0,4.255-19.611,4.255-21.091c0-1.48,15.171-33.116,15.171-33.116l6.66-22.386l23.311-2.405l23.126-5.55
				l11.1-36.632l28.676-1.295c0,0,18.131-1.85,22.756,1.85s13.321,8.88,13.321,8.88L304.78,96.013z"/>
			<path fill="#FFFFFF" d="M379.346,170.135c0-28.015-22.71-50.725-50.725-50.725c-3.327,0-6.583,0.32-9.721,0.936
				c-8.94-27.245-34.574-46.912-64.78-46.912c-30.122,0-55.686,19.549-64.696,46.64c-2.676-0.438-5.423-0.663-8.229-0.663
				c-28.015,0-50.737,22.71-50.737,50.725c0,18.305,9.709,34.373,24.249,43.277l3.173,68.663
				c-7.306,14.623-11.426,31.141-11.426,48.594c0,16.494,3.777,32.064,10.337,46.071c-2.332-0.497-4.523-0.9-7.104-1.539
				c1.255,1.433,5.648,7.14,13.475,13.238c4.369,6.95,9.401,13.439,15.18,19.217c19.703,19.691,46.924,31.886,76.987,31.886
				c30.039,0,57.261-12.196,76.963-31.886c6.133-6.133,11.438-13.06,15.973-20.508c6.808-5.589,10.668-10.609,11.841-11.935
				c-2.238,0.556-4.097,0.888-6.145,1.338c6.512-13.96,10.242-29.459,10.242-45.87c0-14.813-2.96-28.914-8.324-41.785v-75.957
				C369.98,203.928,379.346,188.109,379.346,170.135z M254.168,90.14c10.455-0.272,19.916,2.913,27.565,8.383
				c8.075,5.766,14.114,14.078,17.157,23.551c3.54,11.024,3.067,23.586-2.155,34.622c-4.606,9.757-12.835,18.305-25.173,23.574
				c-4.31,1.812-9.283-0.178-11.118-4.476c-1.835-4.31,0.189-9.271,4.488-11.095c8.182-3.493,13.557-8.987,16.482-15.215
				c3.363-7.081,3.635-15.132,1.362-22.236c-1.942-6.015-5.754-11.284-10.858-14.931c-4.819-3.445-10.775-5.447-17.37-5.269
				c-4.665,0.107-8.537-3.588-8.644-8.253C245.809,94.119,249.503,90.235,254.168,90.14z M181.491,135.786
				c7.933-0.201,15.12,2.214,20.922,6.37c6.133,4.369,10.716,10.68,13.025,17.855c2.688,8.383,2.332,17.903-1.622,26.286
				c-3.505,7.4-9.745,13.889-19.111,17.879c-3.268,1.385-7.033-0.119-8.431-3.387c-1.385-3.268,0.142-7.033,3.398-8.431
				c6.204-2.64,10.301-6.82,12.527-11.533c2.534-5.376,2.759-11.485,1.018-16.885c-1.468-4.559-4.369-8.561-8.241-11.331
				c-3.647-2.605-8.17-4.132-13.179-4.002c-3.54,0.071-6.477-2.712-6.559-6.264C175.156,138.805,177.963,135.868,181.491,135.786z
				 M255.329,424.824c-22.675,0-43.478-7.981-59.794-21.254c8.62,1.93,18.471,2.806,29.779,1.764
				c13.996-1.515,23.859-7.495,29.577-15.144c5.719,7.637,15.582,13.628,29.554,15.144c11.829,1.089,22.106,0.107,30.999-2.025
				C299.067,416.75,278.145,424.824,255.329,424.824z M286.233,360.744c-10.597-7.033-24.178-11.059-31.33-3.659
				c-7.175-7.4-20.756-3.363-31.33,3.659c-19.513,12.953-30.608,19.43-49.138,18.542c-8.786-14.386-13.948-31.223-13.948-49.304
				c0-5.494,0.474-10.882,1.362-16.115c20.082-0.355,64.898-3.233,100.822-20.733c2.072-1.018,4.108-2.096,6.11-3.209
				c16.245,8.146,35.166,15.712,54.466,19.146c8.395,1.492,16.825,2.072,25.055,1.989c1.231,6.11,1.895,12.444,1.895,18.933
				c0,18.081-5.151,34.918-13.936,49.292C317.124,380.423,306.041,373.91,286.233,360.744z M341.244,202.578
				c-3.256,1.409-7.021-0.119-8.407-3.387c-1.385-3.268,0.142-7.033,3.41-8.431c6.193-2.628,10.289-6.808,12.516-11.545
				c2.534-5.364,2.747-11.485,1.018-16.873c-1.468-4.57-4.369-8.573-8.241-11.331c-3.647-2.605-8.182-4.132-13.179-4.002
				c-3.54,0.083-6.489-2.723-6.559-6.264c-0.095-3.54,2.712-6.477,6.264-6.559c7.933-0.201,15.109,2.226,20.91,6.37
				c6.133,4.381,10.716,10.68,13.025,17.879c2.688,8.371,2.332,17.891-1.634,26.286C356.873,192.111,350.609,198.6,341.244,202.578z
				"/>
		</g>
	</g>
</g>
</svg>
