<?xml version="1.0" encoding="utf-8"?>
<!-- Generator: Adobe Illustrator 17.0.0, SVG Export Plug-In . SVG Version: 6.00 Build 0)  -->
<!DOCTYPE svg PUBLIC "-//W3C//DTD SVG 1.1//EN" "http://www.w3.org/Graphics/SVG/1.1/DTD/svg11.dtd">
<svg version="1.1" id="Layer_1" xmlns="http://www.w3.org/2000/svg" xmlns:xlink="http://www.w3.org/1999/xlink" x="0px" y="0px"
	 width="512px" height="512px" viewBox="0 0 512 512" enable-background="new 0 0 512 512" xml:space="preserve">
<g>
	<g>
		<path fill="#F2BF63" d="M256,4.362C117.024,4.362,4.362,117.024,4.362,256S117.024,507.638,256,507.638
			S507.638,394.976,507.638,256S394.976,4.362,256,4.362z M256,503.522C119.297,503.522,8.478,392.702,8.478,256
			S119.297,8.478,256,8.478S503.522,119.298,503.522,256S392.702,503.522,256,503.522z"/>
	</g>
	<g>
		<defs>
			<circle id="SVGID_1_" cx="256" cy="256" r="205.684"/>
		</defs>
		<use xlink:href="#SVGID_1_"  overflow="visible" fill="#F2BF63"/>
		<clipPath id="SVGID_2_">
			<use xlink:href="#SVGID_1_"  overflow="visible"/>
		</clipPath>
		<g clip-path="url(#SVGID_2_)">
			<polygon opacity="0.2" fill="#020202" points="349.604,128.039 414.309,192.743 447.855,226.289 601.55,379.985 394.871,625.256 
				158.639,389.023 164.886,371.823 144.775,351.712 124.408,305.501 100.96,268.532 149.739,255.695 170.791,201.611 
				202.625,163.102 260.817,160.535 266.588,164.682 231.128,129.222 247.638,123.052 278.959,113.125 326.711,113.125 
				332.016,121.169 			"/>
			<g>
				<path fill="#FFFFFF" d="M430.136,218.769c-1.479-8.478-6.178-16.398-13.747-21.743l-0.077-0.055
					c-7.602-5.334-16.694-7.087-25.194-5.597c-6.298,1.106-12.29,3.965-17.132,8.456v-13.134c0-22.85-9.344-43.618-24.383-58.658
					c-15.05-15.05-35.808-24.394-58.657-24.394c-22.85,0-43.607,9.333-58.657,24.394c-0.394,0.383-0.789,0.789-1.161,1.183
					c7,0.57,13.878,1.939,20.483,4.064c11.041-8.161,24.646-13.002,39.335-13.002c18.249,0,34.855,7.471,46.893,19.509
					c12.038,12.038,19.509,28.644,19.509,46.893v38.141c0,4.59,3.724,8.303,8.325,8.303c3.001,0,5.63-1.577,7.087-3.954
					l9.847-14.032c0.208-0.241,0.383-0.504,0.559-0.767c2.695-3.648,6.605-5.904,10.811-6.638s8.675,0.055,12.444,2.574
					c0.23,0.164,0.46,0.34,0.701,0.493c3.626,2.695,5.904,6.627,6.638,10.811c0.745,4.206-0.066,8.686-2.574,12.443
					c-0.197,0.252-0.383,0.504-0.548,0.789l-49.281,70.159h-45.885v27.253h27.023v10.899h-27.023v4.184
					c0,4.918-2.092,9.366-5.433,12.465h40.781c4.59,0,8.314-3.713,8.314-8.314v-27.571c0-0.789-0.109-1.555-0.307-2.278h6.835
					v-0.011c2.607,0,5.17-1.238,6.791-3.527l52.063-74.124l0.022-0.033C429.862,236.372,431.626,227.269,430.136,218.769z"/>
				<path fill="#FFFFFF" d="M223.701,140.011L223.701,140.011c-22.203,0-42.369,9.081-56.993,23.704
					c-14.623,14.613-23.693,34.789-23.693,56.97v19.344c-4.951-6.78-12.181-10.987-19.903-12.345
					c-7.909-1.38-16.365,0.252-23.441,5.225l-0.066,0.033c-7.032,4.973-11.414,12.345-12.794,20.254
					c-1.38,7.908,0.241,16.354,5.214,23.441h0.011l52.063,74.135c1.15,1.643,2.99,2.53,4.852,2.53v0.011h11.118
					c-1.358,1.084-2.235,2.771-2.235,4.634v27.56c0,3.286,2.673,5.959,5.959,5.959h121.894c3.286,0,5.959-2.673,5.959-5.959v-27.56
					c0-1.862-0.865-3.549-2.234-4.634h8.993c3.286,0,5.959-2.684,5.959-5.959V220.685c0-22.181-9.081-42.369-23.693-56.97
					C266.06,149.092,245.883,140.011,223.701,140.011z"/>
			</g>
		</g>
	</g>
</g>
</svg>
