<?xml version="1.0" encoding="utf-8"?>
<!-- Generator: Adobe Illustrator 17.0.0, SVG Export Plug-In . SVG Version: 6.00 Build 0)  -->
<!DOCTYPE svg PUBLIC "-//W3C//DTD SVG 1.1//EN" "http://www.w3.org/Graphics/SVG/1.1/DTD/svg11.dtd">
<svg version="1.1" id="Layer_1" xmlns="http://www.w3.org/2000/svg" xmlns:xlink="http://www.w3.org/1999/xlink" x="0px" y="0px"
	 width="512px" height="512px" viewBox="0 0 512 512" enable-background="new 0 0 512 512" xml:space="preserve">
<g>
	<g>
		<path fill="#E65544" d="M256,4.362C117.024,4.362,4.362,117.024,4.362,256S117.024,507.638,256,507.638
			S507.638,394.976,507.638,256S394.976,4.362,256,4.362z M256,503.522C119.297,503.522,8.478,392.702,8.478,256
			S119.297,8.478,256,8.478S503.522,119.298,503.522,256S392.702,503.522,256,503.522z"/>
	</g>
	<g>
		<defs>
			<circle id="SVGID_1_" cx="256" cy="256" r="205.684"/>
		</defs>
		<use xlink:href="#SVGID_1_"  overflow="visible" fill="#E65544"/>
		<clipPath id="SVGID_2_">
			<use xlink:href="#SVGID_1_"  overflow="visible"/>
		</clipPath>
		<g clip-path="url(#SVGID_2_)">
			<polygon opacity="0.2" fill="#020202" points="267.379,125.735 318.54,176.896 358.73,217.086 352.427,205.219 395.446,248.238 
				453.718,306.51 539.068,391.86 349.933,571.226 104.165,325.458 123.018,318.431 136.998,319.704 119.58,302.286 
				129.016,286.553 142.556,251.933 169.121,222.797 191.572,196.575 240.417,173.095 255.757,173.523 240.417,158.184 
				246.587,142.76 256.607,131.962 			"/>
			<g>
				<path fill="#FFFFFF" d="M262.875,166.274v-6.647c6.614-3.565,11.111-10.552,11.111-18.592c0-11.649-9.455-21.093-21.104-21.093
					s-21.104,9.444-21.104,21.093c0,8.501,5.035,15.839,12.285,19.184v6.472c-69.509,6.307-124.045,64.54-124.484,135.596h274.054
					C393.184,229.114,335.346,169.521,262.875,166.274z M233.293,203.151c-20.742,6.669-36.723,16.738-48.372,29.879
					c-11.627,13.108-19.064,29.473-22.738,48.767c-0.823,4.398-5.057,7.294-9.466,6.483c-4.398-0.833-7.294-5.068-6.472-9.477
					c4.212-22.179,12.91-41.122,26.544-56.511c13.601-15.334,31.974-26.983,55.557-34.563c4.267-1.371,8.83,0.976,10.19,5.232
					C239.896,197.239,237.549,201.791,233.293,203.151z"/>
				<path fill="#FFFFFF" d="M406.928,312.092h-298.24c-4.091,0-7.448,3.356-7.448,7.437c0,4.102,3.356,7.437,7.448,7.437h298.24
					c4.091,0,7.448-3.334,7.448-7.437C414.376,315.449,411.03,312.092,406.928,312.092z"/>
			</g>
		</g>
	</g>
</g>
</svg>
