<?xml version="1.0" encoding="utf-8"?>
<!-- Generator: Adobe Illustrator 17.0.0, SVG Export Plug-In . SVG Version: 6.00 Build 0)  -->
<!DOCTYPE svg PUBLIC "-//W3C//DTD SVG 1.1//EN" "http://www.w3.org/Graphics/SVG/1.1/DTD/svg11.dtd">
<svg version="1.1" id="Layer_1" xmlns="http://www.w3.org/2000/svg" xmlns:xlink="http://www.w3.org/1999/xlink" x="0px" y="0px"
	 width="512px" height="512px" viewBox="0 0 512 512" enable-background="new 0 0 512 512" xml:space="preserve">
<g>
	<path fill="#F2BF63" d="M256,4.362C117.024,4.362,4.362,117.024,4.362,256S117.024,507.638,256,507.638
		S507.638,394.976,507.638,256S394.976,4.362,256,4.362z M256,503.522C119.297,503.522,8.478,392.702,8.478,256
		S119.297,8.478,256,8.478S503.522,119.298,503.522,256S392.702,503.522,256,503.522z"/>
	<g>
		<defs>
			<circle id="SVGID_1_" cx="256" cy="256" r="205.684"/>
		</defs>
		<use xlink:href="#SVGID_1_"  overflow="visible" fill="#F2BF63"/>
		<clipPath id="SVGID_2_">
			<use xlink:href="#SVGID_1_"  overflow="visible"/>
		</clipPath>
		<g clip-path="url(#SVGID_2_)">
			<polygon opacity="0.2" fill="#020202" points="416.769,158.299 589.318,330.848 682.048,423.578 427.074,655.539 
				109.119,337.584 104.211,324.359 161.813,322.603 121.001,281.791 147.347,246.663 155.355,217.216 187.642,191.645 
				217.863,182.863 285.493,175.135 321.925,211.567 351.404,196.811 374.909,201.46 400.739,197.844 414.171,188.545 
				409.522,170.981 			"/>
			<g>
				<path fill="#FFFFFF" d="M128.702,350.012c92.566,0,151.248,0,243.827,0c21.015-11.605,38.646-27.983,51.317-51.305
					c-125.943,0-218.001,0-343.944,0C93.032,324.545,108.89,340.056,128.702,350.012z"/>
				<path fill="#FFFFFF" d="M421.825,182.298c0,0,2.728-28.107-9.981-24.512s-13.762,29.384-13.762,29.384l0.136,0.471
					c-21.871,8.332-65.389-13.279-95.852-10.018c-27.723,8.195-36.464,31.802-33.265,57.305v0.012l0.025,0.211l0.05,0.397
					l0.161,1.104l0.062,0.434l0.161,1.029l0.074,0.434l0.174,0.967l0.074,0.434l0.198,1.066l0.087,0.384l0.025,0.186l0.074,0.36
					l0.087,0.372l0.037,0.124l0.074,0.384l0.124,0.583l0.087,0.372l0.074,0.36l0.087,0.36l0.087,0.372l0.087,0.36l0.05,0.26
					l0.037,0.112l0.298,1.153l0.087,0.31l0.087,0.36l0.198,0.719l0.05,0.186l0.05,0.174l0.347,1.227v0.025l0.062,0.186l0.322,1.066
					l0.037,0.149l0.074,0.211l0.335,1.066l0.037,0.112l0.025,0.087l0.397,1.215l0.037,0.074l0.012,0.037l0.446,1.265l0,0
					l0.012,0.062l0.025,0.074l0.397,1.091l0.136,0.372l0.446,1.153l-0.558-0.992l-0.087-0.149l-0.074-0.124l-0.012-0.012
					l-0.471-0.868l-0.074-0.136l-0.074-0.149l-0.05-0.124l-0.012-0.025l-0.074-0.136l-0.087-0.149l-0.074-0.149l-0.074-0.149
					l-0.074-0.149l-0.074-0.149l-0.074-0.149l-0.074-0.149l-0.149-0.285v-0.012l-0.074-0.149l-0.074-0.149l-0.074-0.136
					l-0.074-0.149l-0.074-0.149l-0.074-0.149l-0.074-0.149l-0.149-0.285l-0.087-0.149l-0.074-0.149l-0.074-0.149l-0.074-0.149
					l-0.074-0.149l-0.074-0.149l-0.074-0.149l-0.074-0.149l-0.062-0.149l-0.087-0.149l-0.062-0.149l-0.149-0.298l-0.074-0.149
					l-0.074-0.149l-0.062-0.149l-0.037-0.074l-0.037-0.074l-0.074-0.149l-0.074-0.149l-0.074-0.149l-0.074-0.149l-0.062-0.149
					l-0.074-0.149l-0.062-0.149l-0.149-0.298l-0.062-0.161c-11.568-25.144-13.638-54.379,15.275-73.448
					c-10.923-2.616-22.491-4.042-34.467-4.042c-59.81,0-109.478,35.05-119.012,81.024l-18.722-6.472
					c-6.571,17.035,1.984,37.641,18.226,42.217c79.25,0,158.489,0,237.752,0c1.612-6.348,2.467-12.907,2.467-19.627
					c0-6.323-0.756-12.522-2.195-18.511c-23.817,14.32-44.002,28.764-71.08,19.007c29.793,6.013,79.189-44.981,105.609-62.488
					c3.893,2.269,23.272,12.708,34.393,2.752C450.862,197.982,421.825,182.298,421.825,182.298z M246.016,201.045
					c-15.027-1.141-28.12,0.88-39.576,5.579c-11.456,4.699-21.424,12.113-30.178,21.747c-2.343,2.579-6.311,2.752-8.89,0.422
					c-2.566-2.331-2.752-6.311-0.409-8.877c9.956-10.96,21.412-19.441,34.703-24.896c13.291-5.455,28.281-7.811,45.291-6.522
					c3.459,0.26,6.063,3.286,5.802,6.745C252.488,198.701,249.475,201.305,246.016,201.045z"/>
			</g>
		</g>
	</g>
</g>
</svg>
