<?xml version="1.0" encoding="utf-8"?>
<!-- Generator: Adobe Illustrator 17.0.0, SVG Export Plug-In . SVG Version: 6.00 Build 0)  -->
<!DOCTYPE svg PUBLIC "-//W3C//DTD SVG 1.1//EN" "http://www.w3.org/Graphics/SVG/1.1/DTD/svg11.dtd">
<svg version="1.1" id="Layer_1" xmlns="http://www.w3.org/2000/svg" xmlns:xlink="http://www.w3.org/1999/xlink" x="0px" y="0px"
	 width="512px" height="512px" viewBox="0 0 512 512" enable-background="new 0 0 512 512" xml:space="preserve">
<g>
	<g>
		<path fill="#E3553D" d="M256,4.362C117.024,4.362,4.362,117.024,4.362,256S117.024,507.638,256,507.638
			S507.638,394.976,507.638,256S394.976,4.362,256,4.362z M256,503.522C119.297,503.522,8.478,392.702,8.478,256
			S119.297,8.478,256,8.478S503.522,119.298,503.522,256S392.702,503.522,256,503.522z"/>
	</g>
	<g>
		<defs>
			<circle id="SVGID_1_" cx="256" cy="256" r="205.684"/>
		</defs>
		<use xlink:href="#SVGID_1_"  overflow="visible" fill="#E3553D"/>
		<clipPath id="SVGID_2_">
			<use xlink:href="#SVGID_1_"  overflow="visible"/>
		</clipPath>
		<g clip-path="url(#SVGID_2_)">
			<path opacity="0.2" fill="#020202" d="M296.246,96.288l44.076,44.076l4.569-1.915l131.52,131.52l210.65,210.65L479.515,709.036
				L172.531,402.051c0,0,9.954-12.684,9.954-13.487c0-0.803-1.124-45.919-1.124-45.919l26.331-101.632l9.809-30.842l31.549,31.549
				l-1.044-6.181l-63.435-63.886l-2.408-14.611l-6.101-35.483l4.87-25.282l65.117,65.117l11.644-13.664l24.337-36.125
				L296.246,96.288z"/>
			<g>
				<path fill="#FFFFFF" d="M339.753,279.656c-37.629-102.201,5.138-141.208,5.138-141.208s-31.3,11.026-42.767,38.996
					c-11.837,28.905,0.041,76.512-17.222,42.048c-21.024-41.997-5.641-105.068,11.344-123.205c0,0-37.969,23.439-50.926,58.407
					c-11.663,31.484-0.514,78.382,7.738,116.906c7.758,36.18,12.958,64.973-5.682,66.668c-24.754,2.261-8.375-27.241-3.74-73.347
					c4.634-46.107-63.637-81.537-63.637-81.537c48.306,74.57-1.5,74.971-19.256,163.434
					c-15.044,75.002,61.417,82.133,106.425,79.554c44.052-2.528,89.264-8.015,89.408-66.668
					C356.636,334.795,349.381,305.746,339.753,279.656z"/>
				<path fill="#FFFFFF" d="M213.805,192.58c-26.521-38.996-37.732-71.272-32.872-96.303c0,0-24.178,39.304-9.299,60.934
					C186.513,178.821,213.805,192.58,213.805,192.58z"/>
			</g>
		</g>
	</g>
</g>
</svg>
